General
Complete name : MAN ON A LEDGE (2012) R5 [H264 MP4][RoB]PR3DATOR RG
Format : MPEG-4
Format profile : Base Media
Codec ID : isom
File size : 1.48 GiB
Duration : 1h 38mn
Overall bit rate mode : Variable
Overall bit rate : 2 156 Kbps
Encoded date : UTC 2012-04-06 20:10:25
Tagged date : UTC 2012-04-06 20:10:25
Writing application : Lavf51.12.1

Video
ID : 1
Format : AVC
Format/Info : Advanced Video Codec
Format profile : Baseline@L3.0
Format settings, CABAC : No
Format settings, ReFrames : 5 frames
Format settings, GOP : M=1, N=12
Codec ID : avc1
Codec ID/Info : Advanced Video Coding
Duration : 1h 38mn
Bit rate : 2 000 Kbps
Width : 720 pixels
Height : 304 pixels
Display aspect ratio : 2.35:1
Frame rate mode : Constant
Frame rate : 25.000 fps
Color space : YUV
Chroma subsampling : 4:2:0
Bit depth : 8 bits
Scan type : Progressive
Bits/(Pixel*Frame) : 0.366
Stream size : 1.37 GiB (93%)
Encoded date : UTC 2012-04-06 20:10:25
Tagged date : UTC 2012-04-06 20:10:25

Audio
ID : 2
Format : AAC
Format/Info : Advanced Audio Codec
Format profile : LC
Codec ID : 40
Duration : 1h 38mn
Bit rate mode : Variable
Bit rate : 152 Kbps
Channel(s) : 2 channels
Channel positions : Front: L R
Sampling rate : 44.1 KHz
Compression mode : Lossy
Stream size : 107 MiB (7%)
Encoded date : UTC 2012-04-06 20:10:25
Tagged date : UTC 2012-04-06 20:10:25
[center]